<?xml version="1.0" encoding="UTF-8" standalone="no"?>
<!-- Created with Inkscape (http://www.inkscape.org/) -->

<svg
   width="48"
   height="48"
   viewBox="0 0 48 48"
   version="1.1"
   id="svg1"
   xml:space="preserve"
   inkscape:export-filename="clou.svg"
   inkscape:export-xdpi="96"
   inkscape:export-ydpi="96"
   xmlns:inkscape="http://www.inkscape.org/namespaces/inkscape"
   xmlns:sodipodi="http://sodipodi.sourceforge.net/DTD/sodipodi-0.dtd"
   xmlns="http://www.w3.org/2000/svg"
   xmlns:svg="http://www.w3.org/2000/svg"><sodipodi:namedview
     id="namedview1"
     pagecolor="#ffffff"
     bordercolor="#000000"
     borderopacity="0.25"
     inkscape:showpageshadow="2"
     inkscape:pageopacity="0.0"
     inkscape:pagecheckerboard="0"
     inkscape:deskcolor="#d1d1d1"
     inkscape:document-units="px"><inkscape:page
       x="0"
       y="0"
       width="48"
       height="48"
       id="page2"
       margin="0"
       bleed="0" /></sodipodi:namedview><defs
     id="defs1" /><g
     inkscape:label="Calque 1"
     inkscape:groupmode="layer"
     id="layer1"><path
       id="path10000"
       d="m 19.529111,11.835969 c -3.41652,0 -6.81228,1.406808 -9.228129,3.822667 -1.5220787,1.522065 -2.6424632,3.433001 -3.2637969,5.492954 -1.4934399,0.28192 -2.9039023,1.010826 -3.9793796,2.086284 -1.4017777,1.401777 -2.21780589,3.371426 -2.21780589,5.35385 0,1.982441 0.81602819,3.952726 2.21780589,5.354501 1.4017942,1.401777 3.3720759,2.217806 5.3544979,2.217806 H 42.326597 c 1.26539,0 2.523231,-0.520647 3.417985,-1.415366 C 46.639354,33.853911 47.16,32.596033 47.16,31.330649 47.16,30.065261 46.639354,28.808071 45.744582,27.913316 44.85533,27.024027 43.607368,26.5049 42.349882,26.498512 42.104497,24.205871 41.06583,21.999138 39.434113,20.367426 37.555129,18.488445 34.914331,17.39437 32.25705,17.39437 c -0.645151,0 -1.288876,0.06615 -1.921414,0.19069 -0.462878,-0.690729 -0.989996,-1.33805 -1.578406,-1.926424 -2.41585,-2.415859 -5.811592,-3.822667 -9.228119,-3.822667 z"
       style="color:#000000;clip-rule:nonzero;display:inline;overflow:visible;visibility:visible;color-interpolation:sRGB;color-interpolation-filters:linearRGB;fill:#4e90ff;fill-opacity:1;fill-rule:nonzero;stroke:none;stroke-width:0.180938px;marker:none;color-rendering:auto;image-rendering:auto;shape-rendering:auto;text-rendering:auto;enable-background:accumulate" /></g></svg>
